<svg width="64" height="64" viewBox="0 0 64 64" fill="none" xmlns="http://www.w3.org/2000/svg">
<path d="M64 32.0001C64 49.6739 49.6739 64 32.0001 64C14.3263 64 0 49.6739 0 32.0001C0 14.3262 14.3263 0 32.0001 0C49.6739 0 64 14.3262 64 32.0001Z" fill="#F7F8F3"/>
<path d="M25.8155 29.9932H15.1748C10.9975 29.9932 7.60156 33.3793 7.60156 37.5663V45.7279H12.2613V38.2416C12.2613 37.9715 12.4832 37.7593 12.7436 37.7593C13.0041 37.7593 13.2163 37.9715 13.2163 38.2416V45.7279H27.8705V38.2416C27.8705 37.9715 28.0827 37.7593 28.3432 37.7593C28.6036 37.7593 28.8159 37.9715 28.8159 38.2416V45.7279H33.3887V37.5663C33.3887 33.3793 29.9927 29.9932 25.8155 29.9932Z" fill="#E86854"/>
<path d="M20.5387 28.3534C24.2432 28.3534 27.2437 25.3435 27.2437 21.6389C27.2437 17.9247 24.2432 14.9243 20.5387 14.9243C16.8245 14.9243 13.8242 17.9247 13.8242 21.6389C13.8242 25.3435 16.8245 28.3534 20.5387 28.3534Z" fill="#E86854"/>
<path d="M50.2993 32.8296H41.5878C38.163 32.8296 35.375 35.6176 35.375 39.0424V45.728H39.1953V39.5923C39.1953 39.3801 39.3785 39.2064 39.5907 39.2064C39.803 39.2064 39.9768 39.3801 39.9768 39.5923V45.728H51.9876V39.5923C51.9876 39.3801 52.1611 39.2064 52.3733 39.2064C52.5856 39.2064 52.7594 39.3801 52.7594 39.5923V45.728H56.5121V39.0424C56.5121 35.6176 53.7241 32.8296 50.2993 32.8296Z" fill="#E86854"/>
<path d="M45.9774 31.4886C49.0163 31.4886 51.4763 29.0285 51.4763 25.9896C51.4763 22.9507 49.0163 20.4907 45.9774 20.4907C42.9385 20.4907 40.4785 22.9507 40.4785 25.9896C40.4785 29.0285 42.9385 31.4886 45.9774 31.4886Z" fill="#E86854"/>
</svg>
