<svg width="17" height="29" viewBox="0 0 17 29" fill="none" xmlns="http://www.w3.org/2000/svg">
<path d="M3.23293 20.1247C3.92753 20.1054 4.47746 19.5266 4.46781 18.832L3.9951 1.22572C3.97581 0.531112 3.39689 -0.0188019 2.70228 0.00049261C2.00768 0.0197872 1.45776 0.598591 1.47706 1.29319L1.94011 18.8995C1.9594 19.5941 2.53832 20.144 3.23293 20.1247Z" fill="#F7F8F3"/>
<path d="M2.15284 18.1565C1.76695 18.7354 1.91175 19.5169 2.49059 19.9028L14.7426 28.1704C15.3214 28.566 16.1029 28.4116 16.4985 27.8328C16.8844 27.254 16.7299 26.4726 16.1607 26.077L3.89906 17.8093C3.32987 17.4234 2.53873 17.5777 2.15284 18.1565Z" fill="#F7F8F3"/>
<path d="M0.00121098 18.9479C0.0398002 20.7134 1.51598 22.1122 3.28143 22.064C5.05653 22.0158 6.45538 20.5493 6.40715 18.7742C6.35891 17.0088 4.88272 15.61 3.11727 15.6582C1.35181 15.7064 -0.0470255 17.1825 0.00121098 18.9479Z" fill="#F7F8F3"/>
<path d="M1.86374 18.8995C1.88304 19.6327 2.50062 20.2115 3.23382 20.1922C3.97666 20.1729 4.55536 19.5652 4.53606 18.832C4.51677 18.0892 3.89942 17.5102 3.16622 17.5295C2.43303 17.5488 1.84445 18.1566 1.86374 18.8995Z" fill="#04BADE"/>
</svg>
