<svg width="50" height="50" viewBox="0 0 50 50" fill="none" xmlns="http://www.w3.org/2000/svg">
<path d="M50 25.0049C50 38.8065 38.8065 50 24.9951 50C11.1935 50 0 38.8065 0 25.0049C0 11.1934 11.1935 0 24.9951 0C38.8065 0 50 11.1934 50 25.0049Z" fill="#B5D43C"/>
<path d="M42.1258 23.7988L34.0146 15.994C33.3131 15.3222 32.1871 15.342 31.5054 16.0434C30.8237 16.7547 30.8532 17.8711 31.5546 18.5528L36.4649 23.2752L20.9639 23.1468C20.9573 23.1468 20.954 23.1468 20.954 23.1468C19.9759 23.1468 19.1858 23.9371 19.1759 24.9152C19.166 25.8932 19.9561 26.6935 20.9441 26.6935L36.455 26.8219L31.5645 31.4356C30.8532 32.1074 30.8237 33.2238 31.4955 33.945C31.8413 34.3106 32.3153 34.4983 32.7895 34.4983C33.2242 34.4983 33.6592 34.3402 34.0049 34.0142L42.106 26.3674C42.4617 26.0315 42.669 25.5672 42.669 25.0831C42.669 24.599 42.4716 24.1347 42.1258 23.7988Z" fill="#002C3E"/>
<path d="M24.3043 40.0205H13.7234C12.7552 40.0205 11.9648 39.24 11.9648 38.262V11.7356C11.9648 10.7575 12.7552 9.97705 13.7234 9.97705H24.3043C25.2725 9.97705 26.0529 10.7575 26.0529 11.7356C26.0529 12.7038 25.2725 13.4842 24.3043 13.4842H17.2304C16.2622 13.4842 15.482 14.2746 15.482 15.2428V34.7548C15.482 35.723 16.2622 36.5133 17.2304 36.5133H24.3043C25.2725 36.5133 26.0529 37.2938 26.0529 38.262C26.0529 39.24 25.2725 40.0205 24.3043 40.0205Z" fill="#002C3E"/>
</svg>
